<?xml version="1.0" encoding="utf-8"?>
<svg version="1.1" xmlns:xlink="http://www.w3.org/1999/xlink" width="43px" height="35px" xmlns="http://www.w3.org/2000/svg">
  <g transform="matrix(1 0 0 1 -873 -324 )">
    <path d="M 22.3958333333333 20.2571614583333  L 33.1085069444444 16.1328125  L 33.4444444444444 23.3333333333333  C 33.494212962963 24.3815104166667  32.9840856481482 25.3537326388889  31.9140625 26.25  C 30.8440393518519 27.1462673611111  29.3820891203704 27.8564453125  27.5282118055556 28.3805338541667  C 25.6743344907407 28.9046223958333  23.6649305555556 29.1666666666667  21.5 29.1666666666667  C 19.3350694444444 29.1666666666667  17.3256655092593 28.9046223958333  15.4717881944444 28.3805338541667  C 13.6179108796296 27.8564453125  12.1559606481482 27.1462673611111  11.0859375 26.25  C 10.0159143518519 25.3537326388889  9.50578703703704 24.3815104166667  9.55555555555556 23.3333333333333  L 9.89149305555556 16.1328125  L 20.6041666666667 20.2571614583333  C 20.8778935185185 20.3634982638889  21.1765046296296 20.4166666666667  21.5 20.4166666666667  C 21.8234953703704 20.4166666666667  22.1221064814815 20.3634982638889  22.3958333333333 20.2571614583333  Z M 42.5894097222222 8.04361979166667  C 42.8631365740741 8.16514756944444  43 8.40060763888889  43 8.75  C 43 9.09939236111111  42.8631365740741 9.33485243055555  42.5894097222222 9.45638020833333  L 21.6866319444444 17.4772135416667  C 21.6368634259259 17.4924045138889  21.5746527777778 17.5  21.5 17.5  C 21.4253472222222 17.5  21.3631365740741 17.4924045138889  21.3133680555556 17.4772135416667  L 9.14496527777778 12.783203125  C 8.6099537037037 13.2996961805556  8.16825810185185 14.1465928819444  7.81987847222222 15.3238932291667  C 7.47149884259259 16.5011935763889  7.25998263888889 17.8569878472222  7.18532986111111 19.3912760416667  C 7.96918402777778 19.9381510416667  8.36111111111111 20.7660590277778  8.36111111111111 21.875  C 8.36111111111111 22.9231770833333  8.00028935185185 23.7358940972222  7.27864583333333 24.3131510416667  L 8.36111111111111 34.1796875  C 8.38599537037037 34.3923611111111  8.33622685185185 34.5822482638889  8.21180555555556 34.7493489583333  C 8.09982638888889 34.9164496527778  7.95052083333333 35  7.76388888888889 35  L 4.18055555555556 35  C 3.99392361111111 35  3.84461805555556 34.9164496527778  3.73263888888889 34.7493489583333  C 3.60821759259259 34.5822482638889  3.55844907407407 34.3923611111111  3.58333333333333 34.1796875  L 4.66579861111111 24.3131510416667  C 3.94415509259259 23.7358940972222  3.58333333333333 22.9231770833333  3.58333333333333 21.875  C 3.58333333333333 20.7660590277778  3.9877025462963 19.9229600694444  4.79644097222222 19.345703125  C 4.93330439814815 16.201171875  5.54296875 13.6946614583333  6.62543402777778 11.826171875  L 0.410590277777778 9.45638020833333  C 0.136863425925926 9.33485243055555  0 9.09939236111111  0 8.75  C 0 8.40060763888889  0.136863425925926 8.16514756944444  0.410590277777778 8.04361979166667  L 21.3133680555556 0.022786458333332  C 21.3631365740741 0.00759548611110938  21.4253472222222 0  21.5 0  C 21.5746527777778 0  21.6368634259259 0.00759548611110938  21.6866319444444 0.022786458333332  L 42.5894097222222 8.04361979166667  Z " fill-rule="nonzero" fill="#63b9be" stroke="none" transform="matrix(1 0 0 1 873 324 )" />
  </g>
</svg>