<?xml version="1.0" encoding="utf-8"?>
<svg version="1.1" xmlns:xlink="http://www.w3.org/1999/xlink" width="27px" height="29px" xmlns="http://www.w3.org/2000/svg">
  <g transform="matrix(1 0 0 1 -879 -457 )">
    <path d="M 7.5 9.22727272727275  L 7.5 13.1818181818182  L 19.5 13.1818181818182  L 19.5 9.22727272727275  C 19.5 7.77178030303037  18.9140625 6.52911931818176  17.7421875 5.49928977272725  C 16.5703125 4.46946022727275  15.15625 3.9545454545455  13.5 3.9545454545455  C 11.84375 3.9545454545455  10.4296875 4.46946022727275  9.2578125 5.49928977272725  C 8.0859375 6.52911931818176  7.5 7.77178030303037  7.5 9.22727272727275  Z M 26.34375 13.7585227272727  C 26.78125 14.1429924242425  27 14.6098484848485  27 15.1590909090909  L 27 27.0227272727273  C 27 27.5719696969696  26.78125 28.0388257575758  26.34375 28.4232954545455  C 25.90625 28.8077651515151  25.375 29  24.75 29  L 2.25 29  C 1.625 29  1.09375 28.8077651515151  0.65625 28.4232954545455  C 0.21875 28.0388257575758  0 27.5719696969696  0 27.0227272727273  L 0 15.1590909090909  C 0 14.6098484848485  0.21875 14.1429924242425  0.65625 13.7585227272727  C 1.09375 13.374053030303  1.625 13.1818181818182  2.25 13.1818181818182  L 3 13.1818181818182  L 3 9.22727272727275  C 3 6.70075757575751  4.03125 4.53125  6.09375 2.71875  C 8.15625 0.90625  10.625 0  13.5 0  C 16.375 0  18.84375 0.90625  20.90625 2.71875  C 22.96875 4.53125  24 6.70075757575751  24 9.22727272727275  L 24 13.1818181818182  L 24.75 13.1818181818182  C 25.375 13.1818181818182  25.90625 13.374053030303  26.34375 13.7585227272727  Z " fill-rule="nonzero" fill="#63b9be" stroke="none" transform="matrix(1 0 0 1 879 457 )" />
  </g>
</svg>