<?xml version="1.0" encoding="utf-8"?>
<svg version="1.1" xmlns:xlink="http://www.w3.org/1999/xlink" width="34px" height="34px" xmlns="http://www.w3.org/2000/svg">
  <g transform="matrix(1 0 0 1 -878 -384 )">
    <path d="M 5.74521452145215 31.1273927392739  L 8.14653465346535 31.1273927392739  L 10.1887788778878 29.0851485148515  L 4.91485148514851 23.8112211221122  L 2.87260726072607 25.8534653465347  L 2.87260726072607 28.2547854785479  L 5.74521452145215 28.2547854785479  L 5.74521452145215 31.1273927392739  Z M 19.7267326732673 10.6825082508251  C 19.8314631463146 10.5777777777778  19.8838283828383 10.450605060506  19.8838283828383 10.3009900990099  C 19.8838283828383 9.97183718371837  19.7192519251925 9.80726072607261  19.390099009901 9.80726072607261  C 19.2404840484048 9.80726072607261  19.1133113311331 9.85962596259626  19.0085808580858 9.96435643564357  L 6.84488448844884 22.1280528052805  C 6.74015401540154 22.2327832783278  6.68778877887789 22.3599559955996  6.68778877887789 22.5095709570957  C 6.68778877887789 22.8387238723872  6.85236523652365 23.003300330033  7.18151815181518 23.003300330033  C 7.33113311331133 23.003300330033  7.45830583058306 22.9509350935094  7.56303630363036 22.846204620462  L 19.7267326732673 10.6825082508251  Z M 0 24.6640264026403  L 18.6719471947195 5.99207920792079  L 28.0079207920792 15.3280528052805  L 9.33597359735974 34  L 0 34  L 0 24.6640264026403  Z M 33.1696369636964 6.1042904290429  C 33.7232123212321 6.68778877887789  34 7.36853685368537  34 8.14653465346535  C 34 8.93949394939494  33.7232123212321 9.61276127612761  33.1696369636964 10.1663366336634  L 29.4442244224422 13.8917491749175  L 20.1082508250825 4.55577557755776  L 23.8336633663366 0.852805280528051  C 24.3722772277228 0.284268426842681  25.0455445544554 0  25.8534653465347 0  C 26.6464246424643 0  27.3271727172717 0.284268426842681  27.8957095709571 0.852805280528051  L 33.1696369636964 6.1042904290429  Z " fill-rule="nonzero" fill="#63b9be" stroke="none" transform="matrix(1 0 0 1 878 384 )" />
  </g>
</svg>