<?xml version="1.0" encoding="utf-8"?>
<svg version="1.1" xmlns:xlink="http://www.w3.org/1999/xlink" width="27px" height="29px" xmlns="http://www.w3.org/2000/svg">
  <g transform="matrix(1 0 0 1 -54 -222 )">
    <path d="M 26.9328835227273 22.1559244791667  C 26.9776278409091 22.7915581597222  27 23.4429253472222  27 24.1100260416667  C 27 25.6204427083333  26.5333806818181 26.8130425347222  25.6001420454545 27.6878255208333  C 24.6669034090909 28.5626085069445  23.4268465909091 29  21.8799715909091 29  L 5.12002840909088 29  C 3.57315340909088 29  2.33309659090912 28.5626085069445  1.3998579545455 27.6878255208333  C 0.46661931818187 26.8130425347222  0 25.6204427083333  0 24.1100260416667  C 0 23.4429253472222  0.0223721590908781 22.7915581597222  0.0671164772727479 22.1559244791667  C 0.111860795454504 21.5202907986111  0.20134943181813 20.8343098958333  0.335582386363626 20.0979817708333  C 0.469815340909122 19.3616536458333  0.639204545454504 18.6788194444445  0.84375 18.0494791666667  C 1.0482954545455 17.4201388888889  1.32315340909088 16.8065321180555  1.66832386363637 16.2086588541667  C 2.01349431818187 15.6107855902778  2.40980113636363 15.1010199652778  2.85724431818187 14.6793619791667  C 3.3046875 14.2577039930555  3.85120738636363 13.9210069444445  4.49680397727275 13.6692708333333  C 5.14240056818187 13.4175347222222  5.85511363636363 13.2916666666667  6.63494318181813 13.2916666666667  C 6.75 13.2916666666667  7.01846590909088 13.4269748263889  7.44034090909088 13.6975911458333  C 7.86221590909088 13.9682074652778  8.3384232954545 14.2702907986111  8.86896306818187 14.6038411458333  C 9.39950284090912 14.9373914930555  10.08984375 15.2394748263889  10.9399857954545 15.5100911458333  C 11.7901278409091 15.7807074652778  12.6434659090909 15.916015625  13.5 15.916015625  C 14.3565340909091 15.916015625  15.2098721590909 15.7807074652778  16.0600142045455 15.5100911458333  C 16.91015625 15.2394748263889  17.6004971590909 14.9373914930555  18.1310369318181 14.6038411458333  C 18.6615767045455 14.2702907986111  19.1377840909091 13.9682074652778  19.5596590909091 13.6975911458333  C 19.9815340909091 13.4269748263889  20.25 13.2916666666667  20.3650568181819 13.2916666666667  C 21.1448863636364 13.2916666666667  21.8575994318182 13.4175347222222  22.5031960227273 13.6692708333333  C 23.1487926136364 13.9210069444445  23.6953125 14.2577039930555  24.1427556818181 14.6793619791667  C 24.5901988636364 15.1010199652778  24.9865056818181 15.6107855902778  25.3316761363636 16.2086588541667  C 25.6768465909091 16.8065321180555  25.9517045454545 17.4201388888889  26.15625 18.0494791666667  C 26.3607954545455 18.6788194444445  26.5301846590909 19.3616536458333  26.6644176136364 20.0979817708333  C 26.7986505681819 20.8343098958333  26.8881392045455 21.5202907986111  26.9328835227273 22.1559244791667  Z M 18.7063210227273 2.1240234375  C 20.14453125 3.5400390625  20.8636363636364 5.24869791666669  20.8636363636364 7.25  C 20.8636363636364 9.25130208333331  20.14453125 10.9599609375  18.7063210227273 12.3759765625  C 17.2681107954545 13.7919921875  15.5326704545455 14.5  13.5 14.5  C 11.4673295454545 14.5  9.7318892045455 13.7919921875  8.29367897727275 12.3759765625  C 6.85546875 10.9599609375  6.13636363636363 9.25130208333331  6.13636363636363 7.25  C 6.13636363636363 5.24869791666669  6.85546875 3.5400390625  8.29367897727275 2.1240234375  C 9.7318892045455 0.7080078125  11.4673295454545 0  13.5 0  C 15.5326704545455 0  17.2681107954545 0.7080078125  18.7063210227273 2.1240234375  Z " fill-rule="nonzero" fill="#63b9be" stroke="none" transform="matrix(1 0 0 1 54 222 )" />
  </g>
</svg>