<?xml version="1.0" encoding="utf-8"?>
<svg version="1.1" xmlns:xlink="http://www.w3.org/1999/xlink" width="20px" height="17px" xmlns="http://www.w3.org/2000/svg">
  <g transform="matrix(1 0 0 1 -42 -25 )">
    <path d="M 19.7526041666667 13.85234375  C 19.9175347222222 14.0205729166667  20 14.2197916666667  20 14.45  L 20 16.15  C 20 16.3802083333333  19.9175347222222 16.5794270833333  19.7526041666667 16.74765625  C 19.5876736111111 16.9158854166666  19.3923611111111 17  19.1666666666667 17  L 0.833333333333329 17  C 0.607638888888886 17  0.412326388888886 16.9158854166666  0.247395833333329 16.74765625  C 0.0824652777777715 16.5794270833333  0 16.3802083333333  0 16.15  L 0 14.45  C 0 14.2197916666667  0.0824652777777715 14.0205729166667  0.247395833333329 13.85234375  C 0.412326388888886 13.6841145833333  0.607638888888886 13.6  0.833333333333329 13.6  L 19.1666666666667 13.6  C 19.3923611111111 13.6  19.5876736111111 13.6841145833333  19.7526041666667 13.85234375  Z M 19.7526041666667 7.05234374999998  C 19.9175347222222 7.22057291666664  20 7.41979166666664  20 7.64999999999998  L 20 9.35000000000002  C 20 9.5802083333333  19.9175347222222 9.7794270833333  19.7526041666667 9.94765625000002  C 19.5876736111111 10.1158854166667  19.3923611111111 10.2  19.1666666666667 10  L 0.833333333333329 10  C 0.607638888888886 10.2  0.412326388888886 10.1158854166667  0.247395833333329 9.94765625000002  C 0.0824652777777715 9.7794270833333  0 9.5802083333333  0 9.35000000000002  L 0 7.64999999999998  C 0 7.41979166666664  0.0824652777777715 7.22057291666664  0.247395833333329 7.05234374999998  C 0.412326388888886 6.88411458333331  0.607638888888886 6.80000000000001  0.833333333333329 7  L 19.1666666666667 7  C 19.3923611111111 6.80000000000001  19.5876736111111 6.88411458333331  19.7526041666667 7.05234374999998  Z M 19.7526041666667 0.252343750000023  C 19.9175347222222 0.420572916666686  20 0.619791666666686  20 0.850000000000023  L 20 2.55000000000001  C 20 2.78020833333335  19.9175347222222 2.97942708333335  19.7526041666667 3.14765625000001  C 19.5876736111111 3.31588541666667  19.3923611111111 3.39999999999998  19.1666666666667 3.39999999999998  L 0.833333333333329 3.39999999999998  C 0.607638888888886 3.39999999999998  0.412326388888886 3.31588541666667  0.247395833333329 3.14765625000001  C 0.0824652777777715 2.97942708333335  0 2.78020833333335  0 2.55000000000001  L 0 0.850000000000023  C 0 0.619791666666686  0.0824652777777715 0.420572916666686  0.247395833333329 0.252343750000023  C 0.412326388888886 0.0841145833333599  0.607638888888886 0  0.833333333333329 0  L 19.1666666666667 0  C 19.3923611111111 0  19.5876736111111 0.0841145833333599  19.7526041666667 0.252343750000023  Z " fill-rule="nonzero" fill="#cccccc" stroke="none" transform="matrix(1 0 0 1 42 25 )" />
  </g>
</svg>